<mxfile host="app.diagrams.net" modified="2021-12-23T02:01:48.004Z" agent="5.0 (Macintosh; Intel Mac OS X 10_15_7) AppleWebKit/537.36 (KHTML, like Gecko) Chrome/96.0.4664.110 Safari/537.36" etag="f7hQpnGOC4kTmWcTFTlu" version="15.9.1" type="github">
  <diagram id="1MKCE3Saas9h6Pn5CN4T" name="Page-1">
    <mxGraphModel dx="1261" dy="788" grid="0" gridSize="10" guides="1" tooltips="1" connect="1" arrows="1" fold="1" page="1" pageScale="1" pageWidth="5000" pageHeight="5000" math="0" shadow="0">
      <root>
        <mxCell id="0" />
        <mxCell id="1" parent="0" />
        <mxCell id="txXvBgOrLgPedFrfrw_Z-118" value="" style="rounded=1;whiteSpace=wrap;html=1;fontSize=22;strokeColor=#82b366;strokeWidth=2;fillColor=none;dashed=1;fontStyle=1" parent="1" vertex="1">
          <mxGeometry x="1125.75" y="1092" width="548.5" height="280" as="geometry" />
        </mxCell>
        <mxCell id="txXvBgOrLgPedFrfrw_Z-95" value="" style="rounded=1;whiteSpace=wrap;html=1;fontSize=22;strokeColor=none;strokeWidth=2;fillColor=#9AC7BF;" parent="1" vertex="1">
          <mxGeometry x="1466.25" y="1284.5" width="170" height="78" as="geometry" />
        </mxCell>
        <mxCell id="txXvBgOrLgPedFrfrw_Z-117" value="" style="rounded=1;whiteSpace=wrap;html=1;fontSize=22;fontColor=#0E8088;strokeColor=#EA6B66;strokeWidth=2;fillColor=none;dashed=1;" parent="1" vertex="1">
          <mxGeometry x="1109" y="560" width="581" height="440" as="geometry" />
        </mxCell>
        <mxCell id="txXvBgOrLgPedFrfrw_Z-107" style="edgeStyle=orthogonalEdgeStyle;rounded=0;orthogonalLoop=1;jettySize=auto;html=1;entryX=0.5;entryY=0;entryDx=0;entryDy=0;fontSize=22;fontColor=#0E8088;strokeColor=#66B2FF;strokeWidth=3;fillColor=#dae8fc;" parent="1" source="txXvBgOrLgPedFrfrw_Z-77" target="txXvBgOrLgPedFrfrw_Z-55" edge="1">
          <mxGeometry relative="1" as="geometry" />
        </mxCell>
        <mxCell id="txXvBgOrLgPedFrfrw_Z-77" value="&lt;font&gt;&lt;font style=&quot;font-size: 29px&quot;&gt;Shared Twin Q network&lt;/font&gt;&lt;br&gt;&lt;br&gt;&lt;br&gt;&lt;br&gt;&lt;br&gt;&lt;/font&gt;" style="rounded=0;whiteSpace=wrap;html=1;strokeColor=#6c8ebf;strokeWidth=2;fillColor=#dae8fc;" parent="1" vertex="1">
          <mxGeometry x="1187.75" y="620" width="424.5" height="120" as="geometry" />
        </mxCell>
        <mxCell id="txXvBgOrLgPedFrfrw_Z-80" style="edgeStyle=orthogonalEdgeStyle;rounded=0;orthogonalLoop=1;jettySize=auto;html=1;entryX=0;entryY=0.5;entryDx=0;entryDy=0;fontSize=22;fontColor=#0E8088;strokeColor=#0E8088;strokeWidth=3;" parent="1" source="txXvBgOrLgPedFrfrw_Z-65" target="txXvBgOrLgPedFrfrw_Z-77" edge="1">
          <mxGeometry relative="1" as="geometry">
            <Array as="points">
              <mxPoint x="1140" y="827" />
              <mxPoint x="1140" y="680" />
            </Array>
          </mxGeometry>
        </mxCell>
        <mxCell id="txXvBgOrLgPedFrfrw_Z-65" value="" style="rounded=1;whiteSpace=wrap;html=1;fontSize=22;strokeColor=none;strokeWidth=2;fillColor=#9AC7BF;" parent="1" vertex="1">
          <mxGeometry x="1160" y="788" width="170" height="78" as="geometry" />
        </mxCell>
        <mxCell id="txXvBgOrLgPedFrfrw_Z-27" style="edgeStyle=none;rounded=0;orthogonalLoop=1;jettySize=auto;html=1;entryX=0.5;entryY=0;entryDx=0;entryDy=0;dashed=1;strokeColor=#FF0000;fillColor=#f8cecc;" parent="1" source="txXvBgOrLgPedFrfrw_Z-26" target="txXvBgOrLgPedFrfrw_Z-25" edge="1">
          <mxGeometry relative="1" as="geometry" />
        </mxCell>
        <mxCell id="txXvBgOrLgPedFrfrw_Z-26" value="" style="rounded=1;whiteSpace=wrap;html=1;fillColor=#9AC7BF;strokeColor=none;fontColor=#333333;" parent="1" vertex="1">
          <mxGeometry x="304.5" y="900" width="120" height="332.62" as="geometry" />
        </mxCell>
        <mxCell id="txXvBgOrLgPedFrfrw_Z-12" style="edgeStyle=none;rounded=0;orthogonalLoop=1;jettySize=auto;html=1;entryX=0;entryY=0.5;entryDx=0;entryDy=0;exitX=1;exitY=0.5;exitDx=0;exitDy=0;exitPerimeter=0;strokeColor=#007FFF;" parent="1" source="txXvBgOrLgPedFrfrw_Z-1" target="txXvBgOrLgPedFrfrw_Z-6" edge="1">
          <mxGeometry relative="1" as="geometry" />
        </mxCell>
        <mxCell id="txXvBgOrLgPedFrfrw_Z-1" value="1" style="shape=mxgraph.cisco.misc.car;html=1;pointerEvents=1;dashed=0;fillColor=#036897;strokeColor=#ffffff;strokeWidth=2;verticalLabelPosition=bottom;verticalAlign=top;align=center;outlineConnect=0;" parent="1" vertex="1">
          <mxGeometry x="330" y="913.5" width="69" height="37" as="geometry" />
        </mxCell>
        <mxCell id="txXvBgOrLgPedFrfrw_Z-15" style="edgeStyle=none;rounded=0;orthogonalLoop=1;jettySize=auto;html=1;entryX=0;entryY=0.5;entryDx=0;entryDy=0;exitX=1;exitY=0.5;exitDx=0;exitDy=0;exitPerimeter=0;strokeColor=#007FFF;" parent="1" source="txXvBgOrLgPedFrfrw_Z-2" target="txXvBgOrLgPedFrfrw_Z-6" edge="1">
          <mxGeometry relative="1" as="geometry" />
        </mxCell>
        <mxCell id="txXvBgOrLgPedFrfrw_Z-2" value="N-2" style="shape=mxgraph.cisco.misc.car;html=1;pointerEvents=1;dashed=0;fillColor=#036897;strokeColor=#ffffff;strokeWidth=2;verticalLabelPosition=bottom;verticalAlign=top;align=center;outlineConnect=0;" parent="1" vertex="1">
          <mxGeometry x="330" y="1170" width="69" height="37" as="geometry" />
        </mxCell>
        <mxCell id="txXvBgOrLgPedFrfrw_Z-13" style="edgeStyle=none;rounded=0;orthogonalLoop=1;jettySize=auto;html=1;entryX=0;entryY=0.5;entryDx=0;entryDy=0;exitX=1;exitY=0.5;exitDx=0;exitDy=0;exitPerimeter=0;strokeColor=#007FFF;" parent="1" source="txXvBgOrLgPedFrfrw_Z-3" target="txXvBgOrLgPedFrfrw_Z-6" edge="1">
          <mxGeometry relative="1" as="geometry" />
        </mxCell>
        <mxCell id="txXvBgOrLgPedFrfrw_Z-3" value="2" style="shape=mxgraph.cisco.misc.car;html=1;pointerEvents=1;dashed=0;fillColor=#036897;strokeColor=#ffffff;strokeWidth=2;verticalLabelPosition=bottom;verticalAlign=top;align=center;outlineConnect=0;" parent="1" vertex="1">
          <mxGeometry x="330" y="973.5" width="69" height="37" as="geometry" />
        </mxCell>
        <mxCell id="txXvBgOrLgPedFrfrw_Z-14" style="edgeStyle=none;rounded=0;orthogonalLoop=1;jettySize=auto;html=1;entryX=0;entryY=0.5;entryDx=0;entryDy=0;exitX=1;exitY=0.5;exitDx=0;exitDy=0;exitPerimeter=0;strokeColor=#007FFF;" parent="1" source="txXvBgOrLgPedFrfrw_Z-4" target="txXvBgOrLgPedFrfrw_Z-6" edge="1">
          <mxGeometry relative="1" as="geometry" />
        </mxCell>
        <mxCell id="txXvBgOrLgPedFrfrw_Z-4" value="N-1" style="shape=mxgraph.cisco.misc.car;html=1;pointerEvents=1;dashed=0;fillColor=#036897;strokeColor=#ffffff;strokeWidth=2;verticalLabelPosition=bottom;verticalAlign=top;align=center;outlineConnect=0;" parent="1" vertex="1">
          <mxGeometry x="330" y="1103.5" width="69" height="37" as="geometry" />
        </mxCell>
        <mxCell id="txXvBgOrLgPedFrfrw_Z-5" value="" style="endArrow=none;dashed=1;html=1;dashPattern=1 3;strokeWidth=2;rounded=0;" parent="1" edge="1">
          <mxGeometry width="50" height="50" relative="1" as="geometry">
            <mxPoint x="360" y="1083.5" as="sourcePoint" />
            <mxPoint x="360" y="1033.5" as="targetPoint" />
          </mxGeometry>
        </mxCell>
        <mxCell id="txXvBgOrLgPedFrfrw_Z-18" style="edgeStyle=none;rounded=0;orthogonalLoop=1;jettySize=auto;html=1;entryX=1;entryY=0.5;entryDx=0;entryDy=0;entryPerimeter=0;dashed=1;strokeColor=#FF8000;" parent="1" source="txXvBgOrLgPedFrfrw_Z-6" target="txXvBgOrLgPedFrfrw_Z-2" edge="1">
          <mxGeometry relative="1" as="geometry" />
        </mxCell>
        <mxCell id="txXvBgOrLgPedFrfrw_Z-19" style="edgeStyle=none;rounded=0;orthogonalLoop=1;jettySize=auto;html=1;entryX=1;entryY=0.5;entryDx=0;entryDy=0;entryPerimeter=0;dashed=1;strokeColor=#FF8000;" parent="1" source="txXvBgOrLgPedFrfrw_Z-6" target="txXvBgOrLgPedFrfrw_Z-4" edge="1">
          <mxGeometry relative="1" as="geometry" />
        </mxCell>
        <mxCell id="txXvBgOrLgPedFrfrw_Z-20" style="edgeStyle=none;rounded=0;orthogonalLoop=1;jettySize=auto;html=1;entryX=1;entryY=0.5;entryDx=0;entryDy=0;entryPerimeter=0;dashed=1;strokeColor=#FF8000;" parent="1" source="txXvBgOrLgPedFrfrw_Z-6" target="txXvBgOrLgPedFrfrw_Z-3" edge="1">
          <mxGeometry relative="1" as="geometry" />
        </mxCell>
        <mxCell id="txXvBgOrLgPedFrfrw_Z-21" style="edgeStyle=none;rounded=0;orthogonalLoop=1;jettySize=auto;html=1;entryX=1;entryY=0.5;entryDx=0;entryDy=0;entryPerimeter=0;dashed=1;strokeColor=#FF8000;" parent="1" source="txXvBgOrLgPedFrfrw_Z-6" target="txXvBgOrLgPedFrfrw_Z-1" edge="1">
          <mxGeometry relative="1" as="geometry" />
        </mxCell>
        <mxCell id="txXvBgOrLgPedFrfrw_Z-6" value="ACTOR" style="rounded=1;whiteSpace=wrap;html=1;" parent="1" vertex="1">
          <mxGeometry x="520" y="950.5" width="70" height="210" as="geometry" />
        </mxCell>
        <mxCell id="txXvBgOrLgPedFrfrw_Z-8" style="rounded=0;orthogonalLoop=1;jettySize=auto;html=1;exitX=1;exitY=0.5;exitDx=0;exitDy=0;entryX=0;entryY=0.5;entryDx=0;entryDy=0;entryPerimeter=0;" parent="1" source="txXvBgOrLgPedFrfrw_Z-7" target="txXvBgOrLgPedFrfrw_Z-1" edge="1">
          <mxGeometry relative="1" as="geometry" />
        </mxCell>
        <mxCell id="txXvBgOrLgPedFrfrw_Z-9" style="edgeStyle=none;rounded=0;orthogonalLoop=1;jettySize=auto;html=1;entryX=0;entryY=0.5;entryDx=0;entryDy=0;entryPerimeter=0;exitX=1;exitY=0.5;exitDx=0;exitDy=0;" parent="1" source="txXvBgOrLgPedFrfrw_Z-7" target="txXvBgOrLgPedFrfrw_Z-3" edge="1">
          <mxGeometry relative="1" as="geometry" />
        </mxCell>
        <mxCell id="txXvBgOrLgPedFrfrw_Z-10" style="edgeStyle=none;rounded=0;orthogonalLoop=1;jettySize=auto;html=1;entryX=0;entryY=0.5;entryDx=0;entryDy=0;entryPerimeter=0;exitX=1;exitY=0.5;exitDx=0;exitDy=0;" parent="1" source="txXvBgOrLgPedFrfrw_Z-7" target="txXvBgOrLgPedFrfrw_Z-4" edge="1">
          <mxGeometry relative="1" as="geometry" />
        </mxCell>
        <mxCell id="txXvBgOrLgPedFrfrw_Z-11" style="edgeStyle=none;rounded=0;orthogonalLoop=1;jettySize=auto;html=1;entryX=0;entryY=0.5;entryDx=0;entryDy=0;entryPerimeter=0;exitX=1;exitY=0.5;exitDx=0;exitDy=0;" parent="1" source="txXvBgOrLgPedFrfrw_Z-7" target="txXvBgOrLgPedFrfrw_Z-2" edge="1">
          <mxGeometry relative="1" as="geometry" />
        </mxCell>
        <mxCell id="txXvBgOrLgPedFrfrw_Z-7" value="Environment" style="rounded=1;whiteSpace=wrap;html=1;" parent="1" vertex="1">
          <mxGeometry x="110" y="950.5" width="70" height="210" as="geometry" />
        </mxCell>
        <mxCell id="txXvBgOrLgPedFrfrw_Z-22" style="edgeStyle=none;rounded=0;orthogonalLoop=1;jettySize=auto;html=1;entryX=0;entryY=0.5;entryDx=0;entryDy=0;dashed=1;strokeColor=#007FFF;" parent="1" source="txXvBgOrLgPedFrfrw_Z-7" target="txXvBgOrLgPedFrfrw_Z-7" edge="1">
          <mxGeometry relative="1" as="geometry" />
        </mxCell>
        <mxCell id="txXvBgOrLgPedFrfrw_Z-25" value="Shared Replay Buffer" style="rounded=1;whiteSpace=wrap;html=1;" parent="1" vertex="1">
          <mxGeometry x="249.5" y="1300" width="230" height="33.5" as="geometry" />
        </mxCell>
        <mxCell id="txXvBgOrLgPedFrfrw_Z-32" value="" style="shape=image;verticalLabelPosition=bottom;labelBackgroundColor=#ffffff;verticalAlign=top;aspect=fixed;imageAspect=0;image=data:image/gif,R0lGODlhHQETALMAAP///wAAAIiIiBAQEDIyMmZmZrq6utzc3HZ2dqqqqu7u7lRUVMzMzCIiIpiYmERERCH5BAEAAAAALAAAAAAdARMAAAT+EMhJq704T2W0/2AojmRpnujVpWxLHgiRuHRt37gdO7kmDIGgkNADMBaykAMhKMxuiKiBocgtm8/i5yB4KBRMAe4q4IkEBERVK2kaYImDfH0zPBYM0UIsaWRbCgQrAgFmNnsTfmweYgWOAAYBeTQKD2YGAyUJBAUHWjATCyAxBKWmp6UrFA6cnnqiEzE1DwUTka41C7ASsosYCjwLA1UGtbMIEwUPJwwPD6o3dABEOGANAtIgtxQImR6THgkBuN0h4B7bsd4vCIYX5xgGVQPII/AYDuMY91sFSRX8LrCiJ0AAggb1JBypFmAXiQcNKjygdmDZhQG4MkCkQMBhRQz+GEFspDBRwkdtCR7wAZkxw4EA0CactBDSQ6kMNV8MsDghp4cFxhSuBMAkBxgC7kIMCCohgDEHTEsspVBoVVSpUZ1KgGohDgZELfLhuzoiQEIXB/wlJTHgD4A/DWJiIIWqrlw0akRUnZBv0gK3IxTsNaLPL2ASgwH0lfDXgoOAYFks4Fmh8QnBa5lNlqvCkaOhL12twCU4W45NnUAMcJcGEqF2FRIIOGwhQJZywAy8TiqbNk3WyHSbTfr461AKvZUedz089mzVx8UkB7EJD4bpRDNv9ZYAsIN1i+w8Y7TrkUnwCg8kiNogYuV6KYlgA3AAvRH17N1XEFA+aH2BkC3+d996FLR3wUv8/AcQfgXqR0EXDzLAAIMesJLXPhQaoJ0E/hg0jAVR+EJBWv9gYBAWqzhkEgAPuEVAAy0pUEBBeezxhAMq0seiizBecKITKQJo3IE7ctRjBQY4GGQFnrRoZEtttOOAGU36RtQ1WxRJlAcNmCGgiBdwYEIBmSlgnxEBYUBmmGdKOMKaHHpGAC2OnBVZBWZa4KYIcOJp354g5KmBlX6G4plnKwk2yRobgplCj/Bw1VICpmkAaQWSxlZpBpeuEuBYOk5A6Qid8lVLRqMqcaoLmQoApagBAJSmoyjEekAHDDzxzBv7IUYfrroawOuDvt6K6acT5CrBrhmJfZmBrcAuK2yzIzDrgrUyZqAMBZXQigMCwvLizZQxAUMCuCuUo5gD5TZ6AbqO3aPbAAS4Ku5W7HLrLojhEjVuvhvsuwrAYRF8hDwjdlOvQQsE4Ky3NFgpcDgaTAxCcSH4ZnEGGkMcDgKfeezxxiaQjMKm+Ghhssgst3zArC283PKBMKcg88xFRAAAOw==;" parent="1" vertex="1">
          <mxGeometry x="235" y="1343.5" width="285" height="19" as="geometry" />
        </mxCell>
        <mxCell id="txXvBgOrLgPedFrfrw_Z-33" value="" style="whiteSpace=wrap;html=1;aspect=fixed;strokeColor=default;fillColor=none;" parent="1" vertex="1">
          <mxGeometry x="75" y="1190" width="143.5" height="143.5" as="geometry" />
        </mxCell>
        <mxCell id="txXvBgOrLgPedFrfrw_Z-34" style="edgeStyle=none;rounded=0;orthogonalLoop=1;jettySize=auto;html=1;dashed=1;strokeColor=#FF0000;fillColor=#f8cecc;" parent="1" edge="1">
          <mxGeometry relative="1" as="geometry">
            <mxPoint x="82" y="1316.25" as="sourcePoint" />
            <mxPoint x="118" y="1317.25" as="targetPoint" />
          </mxGeometry>
        </mxCell>
        <mxCell id="txXvBgOrLgPedFrfrw_Z-35" style="edgeStyle=none;rounded=0;orthogonalLoop=1;jettySize=auto;html=1;dashed=1;strokeColor=#FF8000;fillColor=#f8cecc;" parent="1" edge="1">
          <mxGeometry relative="1" as="geometry">
            <mxPoint x="82" y="1277.7499999999998" as="sourcePoint" />
            <mxPoint x="118" y="1278.75" as="targetPoint" />
            <Array as="points">
              <mxPoint x="95" y="1278.75" />
            </Array>
          </mxGeometry>
        </mxCell>
        <mxCell id="txXvBgOrLgPedFrfrw_Z-37" style="edgeStyle=none;rounded=0;orthogonalLoop=1;jettySize=auto;html=1;strokeColor=#007FFF;fillColor=#f8cecc;" parent="1" edge="1">
          <mxGeometry relative="1" as="geometry">
            <mxPoint x="82" y="1239.9999999999998" as="sourcePoint" />
            <mxPoint x="118" y="1241" as="targetPoint" />
            <Array as="points">
              <mxPoint x="95" y="1241" />
            </Array>
          </mxGeometry>
        </mxCell>
        <mxCell id="txXvBgOrLgPedFrfrw_Z-38" value="obsrvation &amp;amp; characteristic" style="text;html=1;strokeColor=none;fillColor=none;align=center;verticalAlign=middle;whiteSpace=wrap;rounded=0;" parent="1" vertex="1">
          <mxGeometry x="135" y="1220" width="60" height="30" as="geometry" />
        </mxCell>
        <mxCell id="txXvBgOrLgPedFrfrw_Z-39" value="action" style="text;html=1;strokeColor=none;fillColor=none;align=center;verticalAlign=middle;whiteSpace=wrap;rounded=0;" parent="1" vertex="1">
          <mxGeometry x="135" y="1260" width="60" height="30" as="geometry" />
        </mxCell>
        <mxCell id="txXvBgOrLgPedFrfrw_Z-40" value="trajectory" style="text;html=1;strokeColor=none;fillColor=none;align=center;verticalAlign=middle;whiteSpace=wrap;rounded=0;" parent="1" vertex="1">
          <mxGeometry x="135" y="1301.75" width="60" height="30" as="geometry" />
        </mxCell>
        <mxCell id="txXvBgOrLgPedFrfrw_Z-42" value="" style="shape=image;verticalLabelPosition=bottom;labelBackgroundColor=#ffffff;verticalAlign=top;aspect=fixed;imageAspect=0;image=data:image/gif,R0lGODlhqQAXALMAAP///wAAAMzMzFRUVBAQEDIyMkRERJiYmO7u7iIiIqqqqoiIiGZmZtzc3HZ2drq6uiH5BAEAAAAALAAAAACpABcAAAT+EMhJq704X6GQ/mAojqSIHEKprpKQOCkrzzQrMElcCQMRFIPgwOA71DSBBQYxeJAQDobBoDhaN4NEgFFxaAtKCoOQGQQ8FESieq08ArrJgGF2mriSN77NdxQCFg8DF29oFgkJFwtxfG8NGAIBdiEOhgAOknx9BwFGFAqPgQGhFQhbFweWjaOQmSKIFG8OmlcnAD9dGI4XCgFsAKSetAC7G64hBokTkXvDM6AADHAUs4SsFtKG1c4TxRaRkyqcwtws1Q2nErbWpBSwEgqD5XnX38cqRPMz238T0OwWTCUIYiAJCD8FEipcmDAcqjOtHI7oJVGfCWHjJGyzgE5ir1/+MPSpabbj3ggEBMhpQKBqAssLL5+1w3VJg4EC2CBKCAMAQbsrDcb8MlYRhAGVSHRWCKB0AtOWJDZGg7MuwwICAwy9syC1TQM/jCiAU+GAJzKcF26mRStDKjoG/3QlWGDIFEl1XScgZMi3qF4yEUscMIvU4oeqE/7cTdOpwse0PzV5K+mXkFkEZg2DOBCZkzxd0yiYUcXEwLzJsRpX2EqhwQsHsKVMYj2P9oQEUFWDJuWgYIA5dG4yrWwF9aUsAbA2K5Agsham0Osxj+xsegUcARIgdUC9Wz3NGYyDEBA2BHnN56+IB5+6u4YOK+Abll/8O3t77q2yyDyPP4319/UrpNtFKyA2j4E1OABYgBgoMFd+FRQWgoTOULjCVzkw+MEDqWjoIQgNHCBRBAA7;" parent="1" vertex="1">
          <mxGeometry x="280" y="850" width="169" height="23" as="geometry" />
        </mxCell>
        <mxCell id="txXvBgOrLgPedFrfrw_Z-43" style="edgeStyle=none;rounded=0;orthogonalLoop=1;jettySize=auto;html=1;exitX=0.75;exitY=1;exitDx=0;exitDy=0;strokeColor=#007FFF;" parent="1" source="txXvBgOrLgPedFrfrw_Z-42" target="txXvBgOrLgPedFrfrw_Z-42" edge="1">
          <mxGeometry relative="1" as="geometry" />
        </mxCell>
        <mxCell id="txXvBgOrLgPedFrfrw_Z-44" value="set of agents" style="text;html=1;strokeColor=none;fillColor=none;align=center;verticalAlign=middle;whiteSpace=wrap;rounded=0;" parent="1" vertex="1">
          <mxGeometry x="270" y="820" width="110" height="30" as="geometry" />
        </mxCell>
        <mxCell id="txXvBgOrLgPedFrfrw_Z-45" style="edgeStyle=none;rounded=0;orthogonalLoop=1;jettySize=auto;html=1;strokeColor=#000000;fillColor=#f8cecc;" parent="1" edge="1">
          <mxGeometry relative="1" as="geometry">
            <mxPoint x="83" y="1199.9999999999998" as="sourcePoint" />
            <mxPoint x="119" y="1201" as="targetPoint" />
            <Array as="points">
              <mxPoint x="96" y="1201" />
            </Array>
          </mxGeometry>
        </mxCell>
        <mxCell id="txXvBgOrLgPedFrfrw_Z-46" value="state" style="text;html=1;strokeColor=none;fillColor=none;align=center;verticalAlign=middle;whiteSpace=wrap;rounded=0;" parent="1" vertex="1">
          <mxGeometry x="135" y="1190" width="60" height="30" as="geometry" />
        </mxCell>
        <mxCell id="txXvBgOrLgPedFrfrw_Z-47" value="Training" style="text;html=1;strokeColor=none;fillColor=none;align=center;verticalAlign=middle;whiteSpace=wrap;rounded=0;" parent="1" vertex="1">
          <mxGeometry x="90" y="820" width="110" height="30" as="geometry" />
        </mxCell>
        <mxCell id="txXvBgOrLgPedFrfrw_Z-72" style="edgeStyle=none;rounded=0;orthogonalLoop=1;jettySize=auto;html=1;fontSize=22;strokeColor=#ae4132;strokeWidth=2;fillColor=#fad9d5;exitX=0.5;exitY=0;exitDx=0;exitDy=0;entryX=0.5;entryY=1;entryDx=0;entryDy=0;" parent="1" source="txXvBgOrLgPedFrfrw_Z-55" target="txXvBgOrLgPedFrfrw_Z-57" edge="1">
          <mxGeometry relative="1" as="geometry">
            <mxPoint x="1400" y="740" as="sourcePoint" />
          </mxGeometry>
        </mxCell>
        <mxCell id="txXvBgOrLgPedFrfrw_Z-110" style="edgeStyle=orthogonalEdgeStyle;rounded=0;orthogonalLoop=1;jettySize=auto;html=1;fontSize=22;fontColor=#0E8088;strokeColor=#b85450;strokeWidth=3;fillColor=#f8cecc;entryX=0.5;entryY=0;entryDx=0;entryDy=0;" parent="1" source="txXvBgOrLgPedFrfrw_Z-55" target="txXvBgOrLgPedFrfrw_Z-108" edge="1">
          <mxGeometry relative="1" as="geometry">
            <Array as="points">
              <mxPoint x="1400" y="1030" />
              <mxPoint x="1231" y="1030" />
            </Array>
            <mxPoint x="1167" y="1040" as="targetPoint" />
          </mxGeometry>
        </mxCell>
        <mxCell id="txXvBgOrLgPedFrfrw_Z-111" style="edgeStyle=orthogonalEdgeStyle;rounded=0;orthogonalLoop=1;jettySize=auto;html=1;entryX=0.538;entryY=0;entryDx=0;entryDy=0;fontSize=22;fontColor=#0E8088;strokeColor=#b85450;strokeWidth=3;fillColor=#f8cecc;entryPerimeter=0;" parent="1" source="txXvBgOrLgPedFrfrw_Z-55" target="txXvBgOrLgPedFrfrw_Z-114" edge="1">
          <mxGeometry relative="1" as="geometry">
            <mxPoint x="2165" y="990" as="targetPoint" />
            <Array as="points">
              <mxPoint x="1400" y="1030" />
              <mxPoint x="1547" y="1030" />
            </Array>
          </mxGeometry>
        </mxCell>
        <mxCell id="txXvBgOrLgPedFrfrw_Z-55" value="&lt;font style=&quot;font-size: 29px&quot;&gt;Shared Network&lt;/font&gt;" style="rounded=0;whiteSpace=wrap;html=1;strokeColor=#b85450;strokeWidth=2;fillColor=#f8cecc;" parent="1" vertex="1">
          <mxGeometry x="1215.5" y="913.5" width="369" height="60" as="geometry" />
        </mxCell>
        <mxCell id="txXvBgOrLgPedFrfrw_Z-71" style="edgeStyle=none;rounded=0;orthogonalLoop=1;jettySize=auto;html=1;entryX=0.5;entryY=0;entryDx=0;entryDy=0;fontSize=22;strokeColor=#0e8088;exitX=0.5;exitY=1;exitDx=0;exitDy=0;strokeWidth=2;fillColor=#b0e3e6;" parent="1" source="txXvBgOrLgPedFrfrw_Z-56" target="txXvBgOrLgPedFrfrw_Z-55" edge="1">
          <mxGeometry relative="1" as="geometry" />
        </mxCell>
        <mxCell id="txXvBgOrLgPedFrfrw_Z-56" value="O" style="ellipse;whiteSpace=wrap;html=1;aspect=fixed;fontSize=22;strokeColor=#0e8088;strokeWidth=2;fillColor=#b0e3e6;fontColor=#0E8088;" parent="1" vertex="1">
          <mxGeometry x="1165" y="795" width="64" height="64" as="geometry" />
        </mxCell>
        <mxCell id="txXvBgOrLgPedFrfrw_Z-57" value="&lt;font&gt;A&lt;/font&gt;" style="ellipse;whiteSpace=wrap;html=1;aspect=fixed;fontSize=22;strokeColor=#0e8088;strokeWidth=2;fillColor=#b0e3e6;fontColor=#0E8088;" parent="1" vertex="1">
          <mxGeometry x="1240" y="795" width="64" height="64" as="geometry" />
        </mxCell>
        <mxCell id="txXvBgOrLgPedFrfrw_Z-81" style="edgeStyle=orthogonalEdgeStyle;rounded=0;orthogonalLoop=1;jettySize=auto;html=1;fontSize=22;fontColor=#0E8088;strokeColor=#0E8088;strokeWidth=3;entryX=1;entryY=0.5;entryDx=0;entryDy=0;" parent="1" source="txXvBgOrLgPedFrfrw_Z-66" target="txXvBgOrLgPedFrfrw_Z-77" edge="1">
          <mxGeometry relative="1" as="geometry">
            <mxPoint x="1899.9999999999995" y="610" as="targetPoint" />
            <Array as="points">
              <mxPoint x="1660" y="827" />
              <mxPoint x="1660" y="680" />
            </Array>
          </mxGeometry>
        </mxCell>
        <mxCell id="txXvBgOrLgPedFrfrw_Z-66" value="" style="rounded=1;whiteSpace=wrap;html=1;fontSize=22;strokeColor=none;strokeWidth=2;fillColor=#9AC7BF;" parent="1" vertex="1">
          <mxGeometry x="1470" y="788" width="170" height="78" as="geometry" />
        </mxCell>
        <mxCell id="txXvBgOrLgPedFrfrw_Z-73" style="edgeStyle=none;rounded=0;orthogonalLoop=1;jettySize=auto;html=1;entryX=0.5;entryY=0;entryDx=0;entryDy=0;fontSize=22;strokeColor=#0e8088;exitX=0.5;exitY=1;exitDx=0;exitDy=0;strokeWidth=2;fillColor=#b0e3e6;" parent="1" source="txXvBgOrLgPedFrfrw_Z-67" target="txXvBgOrLgPedFrfrw_Z-55" edge="1">
          <mxGeometry relative="1" as="geometry" />
        </mxCell>
        <mxCell id="txXvBgOrLgPedFrfrw_Z-67" value="O" style="ellipse;whiteSpace=wrap;html=1;aspect=fixed;fontSize=22;strokeColor=#0e8088;strokeWidth=2;fillColor=#b0e3e6;fontColor=#0E8088;" parent="1" vertex="1">
          <mxGeometry x="1475" y="795" width="64" height="64" as="geometry" />
        </mxCell>
        <mxCell id="txXvBgOrLgPedFrfrw_Z-68" value="&lt;font&gt;A&lt;/font&gt;" style="ellipse;whiteSpace=wrap;html=1;aspect=fixed;fontSize=22;strokeColor=#0e8088;strokeWidth=2;fillColor=#b0e3e6;fontColor=#0E8088;" parent="1" vertex="1">
          <mxGeometry x="1550" y="795" width="64" height="64" as="geometry" />
        </mxCell>
        <mxCell id="txXvBgOrLgPedFrfrw_Z-69" value="1" style="text;html=1;strokeColor=none;fillColor=none;align=center;verticalAlign=middle;whiteSpace=wrap;rounded=0;fontSize=22;" parent="1" vertex="1">
          <mxGeometry x="1280" y="836" width="60" height="30" as="geometry" />
        </mxCell>
        <mxCell id="txXvBgOrLgPedFrfrw_Z-70" value="N" style="text;html=1;strokeColor=none;fillColor=none;align=center;verticalAlign=middle;whiteSpace=wrap;rounded=0;fontSize=22;" parent="1" vertex="1">
          <mxGeometry x="1590" y="836" width="60" height="30" as="geometry" />
        </mxCell>
        <mxCell id="txXvBgOrLgPedFrfrw_Z-75" value="&lt;font style=&quot;font-size: 27px&quot;&gt;Q network&lt;/font&gt;" style="rounded=0;whiteSpace=wrap;html=1;strokeColor=#6c8ebf;strokeWidth=2;fillColor=#66B2FF;" parent="1" vertex="1">
          <mxGeometry x="1217.75" y="670" width="144.5" height="60" as="geometry" />
        </mxCell>
        <mxCell id="txXvBgOrLgPedFrfrw_Z-76" value="&lt;font style=&quot;font-size: 27px&quot;&gt;Q network&lt;/font&gt;" style="rounded=0;whiteSpace=wrap;html=1;strokeColor=#6c8ebf;strokeWidth=2;fillColor=#66B2FF;" parent="1" vertex="1">
          <mxGeometry x="1442.25" y="670" width="144.5" height="60" as="geometry" />
        </mxCell>
        <mxCell id="txXvBgOrLgPedFrfrw_Z-78" value="" style="endArrow=none;dashed=1;html=1;dashPattern=1 3;strokeWidth=3;rounded=0;fontSize=22;" parent="1" edge="1">
          <mxGeometry width="50" height="50" relative="1" as="geometry">
            <mxPoint x="1362.5" y="834.41" as="sourcePoint" />
            <mxPoint x="1437.5" y="834.41" as="targetPoint" />
          </mxGeometry>
        </mxCell>
        <mxCell id="txXvBgOrLgPedFrfrw_Z-74" style="edgeStyle=none;rounded=0;orthogonalLoop=1;jettySize=auto;html=1;entryX=0.5;entryY=1;entryDx=0;entryDy=0;fontSize=22;strokeColor=#ae4132;exitX=0.5;exitY=0;exitDx=0;exitDy=0;strokeWidth=2;fillColor=#fad9d5;" parent="1" source="txXvBgOrLgPedFrfrw_Z-55" target="txXvBgOrLgPedFrfrw_Z-68" edge="1">
          <mxGeometry relative="1" as="geometry" />
        </mxCell>
        <mxCell id="txXvBgOrLgPedFrfrw_Z-83" value="&lt;font style=&quot;font-size: 22px&quot;&gt;(Centralized) Shared Network&lt;/font&gt;" style="rounded=0;whiteSpace=wrap;html=1;strokeColor=#b85450;strokeWidth=2;fillColor=#f8cecc;" parent="1" vertex="1">
          <mxGeometry x="479.5" y="859" width="170" height="60" as="geometry" />
        </mxCell>
        <mxCell id="txXvBgOrLgPedFrfrw_Z-88" value="" style="rounded=1;whiteSpace=wrap;html=1;fontSize=22;strokeColor=none;strokeWidth=2;fillColor=#9AC7BF;" parent="1" vertex="1">
          <mxGeometry x="1156.25" y="1284.5" width="170" height="78" as="geometry" />
        </mxCell>
        <mxCell id="txXvBgOrLgPedFrfrw_Z-112" style="edgeStyle=orthogonalEdgeStyle;rounded=0;orthogonalLoop=1;jettySize=auto;html=1;entryX=0.25;entryY=1;entryDx=0;entryDy=0;fontSize=22;fontColor=#0E8088;strokeColor=#0E8088;strokeWidth=3;" parent="1" source="txXvBgOrLgPedFrfrw_Z-92" target="txXvBgOrLgPedFrfrw_Z-108" edge="1">
          <mxGeometry relative="1" as="geometry" />
        </mxCell>
        <mxCell id="txXvBgOrLgPedFrfrw_Z-92" value="O" style="ellipse;whiteSpace=wrap;html=1;aspect=fixed;fontSize=22;strokeColor=#0e8088;strokeWidth=2;fillColor=#b0e3e6;fontColor=#0E8088;" parent="1" vertex="1">
          <mxGeometry x="1161.25" y="1291.5" width="64" height="64" as="geometry" />
        </mxCell>
        <mxCell id="txXvBgOrLgPedFrfrw_Z-113" style="edgeStyle=orthogonalEdgeStyle;rounded=0;orthogonalLoop=1;jettySize=auto;html=1;fontSize=22;fontColor=#0E8088;strokeColor=#EA6B66;strokeWidth=3;exitX=0.75;exitY=1;exitDx=0;exitDy=0;fillColor=#f8cecc;" parent="1" source="txXvBgOrLgPedFrfrw_Z-108" target="txXvBgOrLgPedFrfrw_Z-93" edge="1">
          <mxGeometry relative="1" as="geometry" />
        </mxCell>
        <mxCell id="txXvBgOrLgPedFrfrw_Z-93" value="&lt;font&gt;A&lt;/font&gt;" style="ellipse;whiteSpace=wrap;html=1;aspect=fixed;fontSize=22;strokeColor=#0e8088;strokeWidth=2;fillColor=#b0e3e6;fontColor=#0E8088;" parent="1" vertex="1">
          <mxGeometry x="1236.25" y="1291.5" width="64" height="64" as="geometry" />
        </mxCell>
        <mxCell id="txXvBgOrLgPedFrfrw_Z-115" style="edgeStyle=orthogonalEdgeStyle;rounded=0;orthogonalLoop=1;jettySize=auto;html=1;entryX=0.25;entryY=1;entryDx=0;entryDy=0;fontSize=22;fontColor=#0E8088;strokeColor=#0E8088;strokeWidth=3;" parent="1" source="txXvBgOrLgPedFrfrw_Z-97" target="txXvBgOrLgPedFrfrw_Z-114" edge="1">
          <mxGeometry relative="1" as="geometry" />
        </mxCell>
        <mxCell id="txXvBgOrLgPedFrfrw_Z-97" value="O" style="ellipse;whiteSpace=wrap;html=1;aspect=fixed;fontSize=22;strokeColor=#0e8088;strokeWidth=2;fillColor=#b0e3e6;fontColor=#0E8088;" parent="1" vertex="1">
          <mxGeometry x="1471.25" y="1291.5" width="64" height="64" as="geometry" />
        </mxCell>
        <mxCell id="txXvBgOrLgPedFrfrw_Z-116" style="edgeStyle=orthogonalEdgeStyle;rounded=0;orthogonalLoop=1;jettySize=auto;html=1;fontSize=22;fontColor=#0E8088;strokeColor=#EA6B66;strokeWidth=3;fillColor=#f8cecc;exitX=0.75;exitY=1;exitDx=0;exitDy=0;" parent="1" target="txXvBgOrLgPedFrfrw_Z-98" edge="1" source="txXvBgOrLgPedFrfrw_Z-114">
          <mxGeometry relative="1" as="geometry">
            <mxPoint x="1597.75" y="1288.7941176470588" as="sourcePoint" />
            <Array as="points">
              <mxPoint x="1579" y="1258" />
              <mxPoint x="1578" y="1258" />
            </Array>
          </mxGeometry>
        </mxCell>
        <mxCell id="txXvBgOrLgPedFrfrw_Z-98" value="&lt;font&gt;A&lt;/font&gt;" style="ellipse;whiteSpace=wrap;html=1;aspect=fixed;fontSize=22;strokeColor=#0e8088;strokeWidth=2;fillColor=#b0e3e6;fontColor=#0E8088;" parent="1" vertex="1">
          <mxGeometry x="1546.25" y="1291.5" width="64" height="64" as="geometry" />
        </mxCell>
        <mxCell id="txXvBgOrLgPedFrfrw_Z-99" value="1" style="text;html=1;strokeColor=none;fillColor=none;align=center;verticalAlign=middle;whiteSpace=wrap;rounded=0;fontSize=22;" parent="1" vertex="1">
          <mxGeometry x="1276.25" y="1332.5" width="60" height="30" as="geometry" />
        </mxCell>
        <mxCell id="txXvBgOrLgPedFrfrw_Z-100" value="&amp;nbsp;M" style="text;html=1;strokeColor=none;fillColor=none;align=center;verticalAlign=middle;whiteSpace=wrap;rounded=0;fontSize=22;" parent="1" vertex="1">
          <mxGeometry x="1586.25" y="1332.5" width="60" height="30" as="geometry" />
        </mxCell>
        <mxCell id="txXvBgOrLgPedFrfrw_Z-103" value="" style="endArrow=none;dashed=1;html=1;dashPattern=1 3;strokeWidth=3;rounded=0;fontSize=22;" parent="1" edge="1">
          <mxGeometry width="50" height="50" relative="1" as="geometry">
            <mxPoint x="1358.7499999999995" y="1330.9099999999996" as="sourcePoint" />
            <mxPoint x="1433.7499999999995" y="1330.9099999999996" as="targetPoint" />
          </mxGeometry>
        </mxCell>
        <mxCell id="txXvBgOrLgPedFrfrw_Z-108" value="&lt;font style=&quot;font-size: 27px&quot;&gt;Copy Net&lt;/font&gt;" style="rounded=0;whiteSpace=wrap;html=1;strokeColor=#EA6B66;strokeWidth=2;fillColor=#F8E3E2;" parent="1" vertex="1">
          <mxGeometry x="1156.25" y="1157" width="150" height="60" as="geometry" />
        </mxCell>
        <mxCell id="txXvBgOrLgPedFrfrw_Z-114" value="&lt;font style=&quot;font-size: 27px&quot;&gt;Copy Net&lt;/font&gt;" style="rounded=0;whiteSpace=wrap;html=1;strokeColor=#EA6B66;strokeWidth=2;fillColor=#F8E3E2;" parent="1" vertex="1">
          <mxGeometry x="1466.25" y="1158.5" width="150" height="60" as="geometry" />
        </mxCell>
        <mxCell id="txXvBgOrLgPedFrfrw_Z-119" value="&lt;font color=&quot;#000000&quot; style=&quot;font-size: 33px;&quot;&gt;Training&lt;/font&gt;" style="text;html=1;strokeColor=none;fillColor=none;align=center;verticalAlign=middle;whiteSpace=wrap;rounded=0;dashed=1;fontSize=33;fontColor=#0E8088;" parent="1" vertex="1">
          <mxGeometry x="1350" y="570" width="60" height="30" as="geometry" />
        </mxCell>
        <mxCell id="txXvBgOrLgPedFrfrw_Z-120" value="&lt;font color=&quot;#000000&quot;&gt;Execution&lt;/font&gt;" style="text;html=1;strokeColor=none;fillColor=none;align=center;verticalAlign=middle;whiteSpace=wrap;rounded=0;dashed=1;fontSize=33;fontColor=#0E8088;" parent="1" vertex="1">
          <mxGeometry x="1376.25" y="1102" width="60" height="30" as="geometry" />
        </mxCell>
      </root>
    </mxGraphModel>
  </diagram>
</mxfile>
